<?xml version="1.0" encoding="utf-8"?>
<!-- Generator: Adobe Illustrator 20.0.0, SVG Export Plug-In . SVG Version: 6.00 Build 0)  -->
<svg version="1.1" id="Layer_1" xmlns="http://www.w3.org/2000/svg" xmlns:xlink="http://www.w3.org/1999/xlink" x="0px" y="0px"
	 viewBox="0 0 500 500" style="enable-background:new 0 0 500 500;" xml:space="preserve">
<style type="text/css">
	.st0{fill:#222222;stroke:#1F824F;stroke-width:4;stroke-miterlimit:10;}
	.st1{fill:#10140D;stroke:#1F824F;stroke-width:2;stroke-miterlimit:10;}
	.st2{fill:#1F824F;}
	.st3{fill:#B3B3B3;stroke:#1F824F;stroke-width:2;stroke-miterlimit:10;}
	.st4{display:none;}
	.st5{display:none;fill:#0F0F0F;}
	.st6{display:none;fill:none;stroke:#0F0F0F;stroke-width:3;stroke-miterlimit:10;}
	.st7{display:none;fill:none;stroke:#0F0F0F;stroke-width:2;stroke-miterlimit:10;}
</style>
<path class="st0" d="M98.5,98.9c0,0,146.1-208.9,303.1-0.2l5.7,124.8l-17.4,19.8l1.9,62.2l-51.9,70.8l45.4-39.9l-11.8,51.5
	L283.2,494h-70.6l-84.1-107.6l-13.5-49.2l41.2,43.9L106,305.5l1.1-66.4l-16.2-15.6L98.5,98.9z"/>
<polygon class="st1" points="85.4,274.4 97.4,291 97.4,260.1 85.4,245.4 "/>
<polygon class="st1" points="399.4,259.9 411.8,245.4 414.6,276.7 399.4,294.8 "/>
<polygon class="st2" points="224.8,257.4 204.8,257.4 165.9,234.7 111.9,227.7 156.1,285.3 169.9,273.5 207.3,275 "/>
<polygon class="st2" points="276.3,259.5 296.2,259.5 335.3,236.8 389.1,229.8 345,287.4 331.1,275.6 293.9,277.1 "/>
<polygon class="st3" points="141.6,246.9 156.1,266.6 198.1,267 180.6,249 "/>
<polygon class="st3" points="361,249 346,268.7 304,269.1 321.9,251.1 "/>
<g id="UiN2S5_1_" class="st4">
</g>
<polygon class="st5" points="15.5,360.9 41.2,360.9 41.2,401 53.8,401 53.8,381 60.8,381 60.8,388.6 77.8,389 77.8,363.2 
	101.1,363.3 101.1,381 107.9,381 107.9,394.8 115.4,394.9 115.4,350 133.9,350 133.9,390.8 138.5,390.8 138.5,401 147.6,401 
	147.6,369.4 164.7,369.7 164.7,389.6 168.4,389.4 168.4,378.1 183.5,378.4 183.5,398.6 191.6,398.8 191.6,385 196.9,384.9 
	196.9,354 221.2,354.2 221.2,401 232.9,401 232.9,391.5 237.6,391 237.6,350 256.2,350 256.2,375.5 267.8,375.5 267.8,348.8 
	288.8,348.8 288.8,379.3 294,379.3 294,306 319.9,306 319.9,314.2 360.4,314.2 360.4,352.3 374.9,343.2 388,351.1 388,317.6 
	397.9,317.4 397.9,397.9 401.7,397.7 401.7,374.3 411.3,374.3 411.3,316 414.9,316 414.9,311.3 418.1,311.4 418.1,301.1 
	418.1,294.6 421.1,294.6 421.1,291.6 421.1,288.5 426.3,288.5 426.3,294.9 428.5,294.9 428.5,311.5 430.9,311.5 430.9,316.1 
	434.5,316.3 434.5,344.8 443.6,344.8 443.6,319.5 454.6,319.5 454.6,315.7 462.3,316.1 462.3,307.3 466.1,306.5 466.1,291.2 
	469.5,290.8 469.5,319.5 472.2,319.5 472.2,291.6 475.3,290.5 475.3,316.9 483.7,316.9 483.7,321.8 493.7,319.5 493.7,354.3 
	493.7,451.9 493.7,496.1 493.7,500 0,500 0,409.6 9.2,409 8,394.2 14.8,394.2 "/>
<line class="st6" x1="4.8" y1="370.3" x2="277.6" y2="370.3"/>
<line class="st6" x1="4.8" y1="378" x2="277.6" y2="378"/>
<path class="st6" d="M4.8,347.6c0,0,52.8-25.6,65.7-52.7"/>
<line class="st6" x1="70.5" y1="293.2" x2="70.5" y2="392"/>
<path class="st6" d="M6.3,360.2c0,0,51.5-24.8,64.2-51.2"/>
<line class="st6" x1="88.5" y1="293.2" x2="88.5" y2="392"/>
<path class="st6" d="M88.5,294.9c0,0,33,42.2,107.1,75.3"/>
<path class="st6" d="M88.5,312.2c0,0,35.3,37.1,91.2,58.1"/>
<line class="st7" x1="70.5" y1="297.2" x2="88.5" y2="315.1"/>
<line class="st7" x1="70.5" y1="314.6" x2="88.5" y2="332.6"/>
<line class="st7" x1="70.5" y1="330.5" x2="88.5" y2="348.5"/>
<line class="st7" x1="70.5" y1="346.9" x2="88.5" y2="364.9"/>
<line class="st7" x1="70.5" y1="364.9" x2="88.5" y2="351"/>
<line class="st7" x1="70.5" y1="348.5" x2="88.5" y2="334.6"/>
<line class="st7" x1="70.5" y1="332.6" x2="88.5" y2="318.7"/>
<line class="st7" x1="70.5" y1="316" x2="88.5" y2="302.1"/>
<line class="st7" x1="70.5" y1="297.6" x2="89.6" y2="297.6"/>
</svg>
